<?xml version="1.0" encoding="UTF-8"?>
<svg width="30px" height="31px" viewBox="0 0 30 31" version="1.1" xmlns="http://www.w3.org/2000/svg" xmlns:xlink="http://www.w3.org/1999/xlink">
    <!-- Generator: Sketch 53.1 (72631) - https://sketchapp.com -->
    <title>directions</title>
    <desc>Created with Sketch.</desc>
    <g id="Page-1" stroke="none" stroke-width="1" fill="none" fill-rule="evenodd">
        <g id="Find-Nearby-(Mobile-–-1/2)" transform="translate(-304.765625, -781.664062)" fill-rule="nonzero">
            <g id="Search-Results" transform="translate(23.218750, 657.281250)">
                <g id="2/3" transform="translate(14.000000, 93.000000)">
                    <g id="directions" transform="translate(267.000000, 32.000000)">
                        <circle id="Oval-Copy" fill="#FCAE09" cx="15.5664062" cy="15.125" r="15"></circle>
                        <path d="M25.8945658,12.5628947 C25.7954025,12.4419258 25.6474362,12.3713174 25.4922014,12.3713174 L23.5187988,12.3713174 C23.031808,11.0868664 22.3973703,9.82837437 21.6762294,9.3533248 C19.1815702,7.71219724 12.5646228,7.71219724 10.0699635,9.3533248 C9.34830351,9.82889355 8.71646161,11.0889431 8.226875,12.3713174 L6.25347233,12.3713174 C6.09668001,12.3713174 5.94923293,12.4419258 5.85110793,12.5628947 C5.75246376,12.6833445 5.71300609,12.8427327 5.74519524,12.9958907 L6.0374935,14.4122134 C6.08733477,14.653632 6.30019852,14.8259998 6.54577059,14.8259998 L7.13036712,14.8259998 C6.56601861,15.4770513 6.29241082,16.2968363 6.28877656,17.1171405 C6.2851423,18.1305796 6.66985458,19.0464129 7.3733433,19.6943494 C7.381131,19.7010987 7.38891869,19.7057713 7.39618721,19.7125207 L7.39618721,21.6942302 C7.39618721,22.123592 7.74507608,22.473 8.17495701,22.473 L9.99520162,22.473 C10.4250825,22.473 10.7739714,22.123592 10.7739714,21.6942302 L10.7739714,20.8978083 L20.9711832,20.8978083 L20.9711832,21.6942302 C20.9711832,22.123592 21.320072,22.473 21.749953,22.473 L23.5701976,22.473 C23.9990401,22.473 24.3489674,22.123592 24.3489674,21.6942302 L24.3489674,19.7514591 C25.095548,19.0676993 25.4522246,18.1269453 25.4568972,17.187749 C25.4600123,16.3394091 25.1739442,15.4895116 24.5763681,14.8249614 L25.1999032,14.8249614 C25.4465136,14.8249614 25.6593773,14.6525937 25.7081803,14.4106559 L26.0009977,12.9948524 C26.0311101,12.8427327 25.99321,12.6843828 25.8945658,12.5628947 Z M10.9250528,10.6538704 C12.9135116,9.34501792 18.8316429,9.34501792 20.8190635,10.6538704 C21.2053333,10.9072301 21.7021884,11.931572 22.1575092,13.1859106 L9.58764543,13.1859106 C10.0419278,11.9320912 10.5387829,10.9082685 10.9250528,10.6538704 Z M8.59601188,17.3123521 C8.59601188,16.466089 9.28236766,15.7807715 10.1281117,15.7807715 C10.974894,15.7807715 11.6602114,16.466089 11.6602114,17.3123521 C11.6602114,18.1586153 10.974894,18.8444519 10.1281117,18.8444519 C9.28236766,18.8444519 8.59601188,18.1586153 8.59601188,17.3123521 Z M21.6372909,18.8444519 C20.7915469,18.8444519 20.1051911,18.1586153 20.1051911,17.3123521 C20.1051911,16.466089 20.7915469,15.7807715 21.6372909,15.7807715 C22.4840733,15.7807715 23.1693907,16.466089 23.1693907,17.3123521 C23.1693907,18.1586153 22.4830349,18.8444519 21.6372909,18.8444519 Z" id="Shape" fill="#FFFFFF"></path>
                    </g>
                </g>
            </g>
        </g>
    </g>
</svg>