<?xml version="1.0" encoding="UTF-8"?>
<svg width="30px" height="31px" viewBox="0 0 30 31" version="1.1" xmlns="http://www.w3.org/2000/svg" xmlns:xlink="http://www.w3.org/1999/xlink">
    <!-- Generator: Sketch 53.1 (72631) - https://sketchapp.com -->
    <title>telephone</title>
    <desc>Created with Sketch.</desc>
    <g id="Page-1" stroke="none" stroke-width="1" fill="none" fill-rule="evenodd">
        <g id="Find-Nearby-(Mobile-–-1/2)" transform="translate(-264.765625, -781.664062)">
            <g id="Search-Results" transform="translate(23.218750, 657.281250)">
                <g id="2/3" transform="translate(14.000000, 93.000000)">
                    <g id="telephone" transform="translate(226.734375, 32.125000)">
                        <circle id="Oval" fill="#FCAE09" fill-rule="nonzero" cx="15.8320312" cy="15" r="15"></circle>
                        <path d="M20.7266434,16.5209216 C20.2488293,16.0491943 19.6523225,16.0491943 19.1775518,16.5209216 C18.815387,16.880043 18.4532221,17.2391645 18.0971441,17.6043727 C17.9997552,17.704805 17.9175834,17.7261088 17.7988907,17.659154 C17.5645487,17.5313311 17.3149898,17.4278554 17.089778,17.2878589 C16.0398043,16.6274407 15.1602611,15.7783315 14.3811502,14.8227033 C13.9946381,14.3479325 13.6507337,13.8396844 13.4103049,13.2675248 C13.3616105,13.1518755 13.3707407,13.0757905 13.4650862,12.981445 C13.827251,12.6314538 14.1802857,12.2723324 14.5363637,11.9132109 C15.0324382,11.414093 15.0324382,10.8297598 14.5333203,10.3275985 C14.2502839,10.0415187 13.9672475,9.76152568 13.6842111,9.47544589 C13.3920445,9.1832793 13.1029213,8.8880693 12.8077113,8.59894611 C12.3298972,8.1333056 11.7333904,8.1333056 11.2586197,8.60198951 C10.8934115,8.96111095 10.5434202,9.32936259 10.1721252,9.68239723 C9.82822075,10.0080412 9.65474684,10.4067269 9.61822601,10.8723674 C9.56040137,11.6301745 9.7460489,12.345374 10.0077815,13.0423131 C10.5434202,14.4848856 11.359052,15.7661579 12.3481576,16.9409111 C13.6842111,18.5295669 15.2789538,19.786492 17.1445592,20.6934258 C17.9845382,21.1012417 18.8549512,21.4147121 19.8014492,21.4664499 C20.4527372,21.5029707 21.01881,21.338627 21.4722769,20.8303789 C21.7827039,20.483431 22.1326952,20.1669172 22.4613826,19.8351864 C22.9483269,19.3421553 22.9513703,18.7456485 22.4674694,18.2587042 C21.889223,17.6774144 21.3079332,17.099168 20.7266434,16.5209216 Z" id="Path" fill="#FFFFFF"></path>
                    </g>
                </g>
            </g>
        </g>
    </g>
</svg>